<svg width="100%" height="100%" viewBox="0 0 800 600" fill="none" xmlns="http://www.w3.org/2000/svg">
  <defs>
    <linearGradient id="bg" x1="0" y1="0" x2="1" y2="1">
      <stop offset="0%" stop-color="#0F172A" />
      <stop offset="100%" stop-color="#111827" />
    </linearGradient>
    <linearGradient id="pathGradient" x1="0" y1="0" x2="1" y2="0">
      <stop offset="0%" stop-color="#F97316" />
      <stop offset="100%" stop-color="#FDBA74" />
    </linearGradient>
  </defs>
  <rect width="800" height="600" rx="40" fill="url(#bg)" />
  <g opacity="0.9">
    <path d="M120 420C160 360 220 360 260 420C300 480 380 480 420 420C460 360 540 360 580 420" stroke="#334155" stroke-width="22" stroke-linecap="round" />
    <path d="M140 340C180 300 240 300 280 340C320 380 400 380 440 340C480 300 560 300 600 340" stroke="#334155" stroke-width="22" stroke-linecap="round" />
    <path d="M100 180C150 170 190 140 230 150C270 160 325 180 360 170C400 160 450 140 500 160C540 175 590 185 640 170" stroke="#334155" stroke-width="22" stroke-linecap="round" />
    <path d="M230 520L310 430L390 470L470 365L540 385" stroke="#475569" stroke-width="16" stroke-linecap="round" stroke-linejoin="round" />
  </g>
  <circle cx="210" cy="315" r="36" fill="#0F172A" stroke="#F97316" stroke-width="10" />
  <circle cx="210" cy="315" r="16" fill="#F97316" />
  <circle cx="520" cy="200" r="36" fill="#0F172A" stroke="#F97316" stroke-width="10" />
  <circle cx="520" cy="200" r="16" fill="#F97316" />
  <circle cx="620" cy="430" r="36" fill="#0F172A" stroke="#F97316" stroke-width="10" />
  <circle cx="620" cy="430" r="16" fill="#F97316" />
  <path d="M210 315C300 280 360 255 520 200" stroke="url(#pathGradient)" stroke-width="12" stroke-linecap="round" />
  <path d="M520 200C560 240 590 280 620 430" stroke="url(#pathGradient)" stroke-width="12" stroke-linecap="round" />
  <rect x="480" y="60" width="220" height="80" rx="20" fill="#111827" fill-opacity="0.85" />
  <text x="540" y="110" fill="#F97316" font-family="Inter, sans-serif" font-size="28" font-weight="700">Live route</text>
  <circle cx="320" cy="120" r="24" fill="#F97316" />
  <text x="300" y="125" fill="#0F172A" font-family="Inter, sans-serif" font-size="14" font-weight="700">2.1km</text>
</svg>